<?xml version="1.0" encoding="UTF-8" standalone="no"?>
<svg
   xmlns:dc="http://purl.org/dc/elements/1.1/"
   xmlns:cc="http://creativecommons.org/ns#"
   xmlns:rdf="http://www.w3.org/1999/02/22-rdf-syntax-ns#"
   xmlns:svg="http://www.w3.org/2000/svg"
   xmlns="http://www.w3.org/2000/svg"
   viewBox="0 0 672.27332 668.54797"
   height="668.54797"
   width="672.27332"
   xml:space="preserve"
   id="svg2"
   version="1.1"><metadata
     id="metadata8"><rdf:RDF><cc:Work
         rdf:about=""><dc:format>image/svg+xml</dc:format><dc:type
           rdf:resource="http://purl.org/dc/dcmitype/StillImage" /></cc:Work></rdf:RDF></metadata><defs
     id="defs6"><clipPath
       id="clipPath18"
       clipPathUnits="userSpaceOnUse"><path
         id="path16"
         d="M 0,501.411 H 504.205 V 0 H 0 Z" /></clipPath></defs><g
     transform="matrix(1.3333333,0,0,-1.3333333,0,668.548)"
     id="g10"><g
       id="g12"><g
         clip-path="url(#clipPath18)"
         id="g14"><g
           transform="translate(119.4325,110.0251)"
           id="g20"><path
             id="path22"
             style="fill:#332d2b;fill-opacity:1;fill-rule:nonzero;stroke:none"
             d="M 0,0 V 122.027 C 9.108,56.941 65.118,6.683 132.669,6.683 c 67.553,0 123.558,50.256 132.669,115.338 V -0.002 C 230.667,-32.716 183.987,-52.832 132.67,-52.832 81.351,-52.832 34.671,-32.715 0,0 m 229.37,140.679 c 0,-53.321 -43.38,-96.701 -96.701,-96.701 -53.32,0 -96.701,43.38 -96.701,96.701 0,53.321 43.381,96.701 96.701,96.701 53.321,0 96.701,-43.38 96.701,-96.701 M 0,281.361 c 34.671,32.714 81.351,52.831 132.67,52.831 51.317,0 97.997,-20.116 132.668,-52.829 V 159.336 C 256.227,224.416 200.222,274.675 132.669,274.675 65.118,274.675 9.108,224.413 0,159.331 Z m 132.67,54.227 c -107.473,0 -194.909,-87.433 -194.909,-194.907 0,-107.473 87.436,-194.909 194.909,-194.909 107.473,0 194.909,87.436 194.909,194.909 0,107.474 -87.436,194.907 -194.909,194.907" /></g></g></g></g></svg>